<svg xmlns="http://www.w3.org/2000/svg" viewBox="0 -960 960 960" fill="rgb(118,122,133)">
    <path
        d="M820.077-524.308v325.847q0 24.692-16.885 41.577Q786.308-140 761.616-140H197.872q-24.693 0-41.577-16.884-16.885-16.885-16.885-41.577v-327.385q-26.59-19.667-37.013-50.539-10.423-30.871.141-64.128l39.077-128.154q8-25.128 25.731-38.231Q185.077-820 210.641-820H746.18q25.871 0 44.23 12.628 18.359 12.628 25.923 37.167l41.282 129.692q10.565 33.257-.192 64.821-10.756 31.564-37.346 51.384Zm-251.692-12.615q39.359 0 60.051-21.91 20.692-21.911 17.538-46.039l-27.589-181.282H497v173.18q0 30.743 20.872 53.397t50.513 22.654Zm-182.103 0q33.513 0 55.192-22.321 21.68-22.32 21.68-53.73v-173.18H341.256l-27.589 184.359q-2.462 19.436 17.32 42.154 19.782 22.718 55.295 22.718Zm-179.128 0q27.897 0 48.038-19.051 20.141-19.052 24.167-47.103l26.205-183.077h-98.308q-13.077 0-21.025 5.769-7.949 5.769-11.282 17.308l-38.872 130.205q-10.975 34.257 8.91 65.103 19.885 30.846 62.167 30.846Zm545.179 0q36.898 0 59.975-28.974 23.077-28.975 11.256-66.975l-40.051-131.744q-3.333-11.538-11.282-16.538t-21.026-5h-97.128l26.205 183.077q4.539 28.051 24.423 47.103 19.885 19.051 47.628 19.051ZM197.872-173.846h563.744q10.256 0 17.435-6.923 7.18-6.923 7.18-17.692V-508q-6.641 2.615-15.603 3.769-8.961 1.154-18.295 1.154-26.179 0-47.243-11.026-21.064-11.025-40.346-34.923-15.385 20.359-38.539 33.154-23.154 12.795-57.051 12.795-24.898 0-45.91-10.923-21.013-10.923-43.167-33.077-19.769 21.846-44.269 32.923-24.5 11.077-47.629 11.077-25.974 0-49.935-9.769-23.962-9.769-41.295-36.18-30.436 29.462-53.372 37.705-22.936 8.244-36.423 8.244-9.18 0-17.808-1.154T173.256-508v309.539q0 10.769 7.18 17.692 7.179 6.923 17.436 6.923Zm563.744 0H197.872h563.744Z" />
</svg>